<svg xmlns="http://www.w3.org/2000/svg" width="80" height="40" viewBox="0 0 80 40">
    <g fill="none" fill-rule="evenodd">
        <g>
            <g fill="#616161" fill-rule="nonzero">
                <path d="M9.998 1.71l.048.085 1.748 3.88.25-.582c.142-.33.554-.393.794-.177l.06.066.051.08 6.496 12.71c.157.308-.037.668-.361.721L19 18.5H1c-.326 0-.556-.303-.489-.606l.026-.083 3.278-8.026c.134-.327.546-.409.795-.185l.064.068.694.899 3.763-8.764c.158-.37.652-.402.867-.093zm-.397 1.531l-3.649 8.501c-.138.322-.546.399-.792.177l-.063-.068-.685-.886L1.743 17.5h16.439L12.543 6.466l-.278.649c-.145.338-.572.394-.808.163l-.06-.07-.047-.085-1.749-3.882zm2.836 6.18c.156.091.222.278.166.444l-.031.069-.15.255.17-.037c.202-.045.403.082.448.284.04.177-.053.352-.212.424l-.072.024-.849.189-.516.886.239.41 1.041-.001.592-.635c.14-.152.378-.16.53-.02.133.124.156.321.065.47l-.046.06-.116.124H14c.207 0 .375.168.375.375 0 .181-.128.332-.3.367l-.075.008h-.302l.113.12c.141.152.133.39-.018.53-.133.125-.331.134-.473.033l-.057-.05-.591-.632-1.041.001-.238.409.517.885.852.19c.202.045.33.245.285.447-.04.177-.197.297-.372.294l-.075-.009-.174-.038.15.256c.105.179.045.409-.134.513-.157.092-.352.057-.468-.073l-.045-.061-.156-.267-.053.169c-.062.197-.272.307-.47.245-.173-.054-.279-.222-.26-.396l.015-.074.256-.819-.518-.886h-.485l-.517.887.26.822c.063.197-.047.408-.244.47-.173.055-.356-.022-.44-.174l-.031-.07-.054-.173-.156.268c-.104.179-.334.24-.513.135-.156-.091-.222-.278-.166-.444l.031-.069.149-.256-.169.038c-.202.045-.403-.082-.448-.284-.04-.177.053-.352.212-.424l.072-.024.847-.189.517-.888-.239-.409-1.041.001-.59.636c-.142.152-.379.16-.53.02-.133-.124-.157-.321-.066-.47l.046-.06.115-.125H7c-.207 0-.375-.167-.375-.374 0-.181.128-.333.3-.368L7 12.373l.301-.001-.112-.12c-.141-.151-.133-.388.018-.53.133-.124.331-.133.473-.032l.057.05.59.631h1.041l.239-.411-.518-.884-.851-.189c-.202-.045-.33-.245-.285-.447.04-.177.197-.297.372-.294l.075.009.172.037-.148-.255c-.105-.179-.044-.408.134-.513.157-.091.352-.057.469.073l.044.061.155.266.054-.168c.054-.172.222-.278.396-.26l.074.015c.173.054.279.222.26.396l-.015.074-.257.818.518.886h.485l.517-.887-.26-.82c-.062-.198.047-.408.245-.471.173-.055.355.022.44.174l.03.07.054.172.157-.267c.104-.179.334-.24.513-.135z" transform="translate(60)"/>
            </g>
            <g fill="#616161" fill-rule="nonzero">
                <path d="M10.378 1.677l.054.078 9 16c.173.308-.02.682-.35.738l-.086.007h-18c-.353 0-.585-.35-.472-.667l.036-.078 9-16c.175-.312.601-.338.818-.078zm-.382 1.342L1.85 17.5h16.291L9.996 3.019zm1.852 6.067l.046.069 3.432 6.346c.123.228-.015.5-.255.547l-.075.007h-10c-.258 0-.431-.251-.359-.484l.03-.07 2.859-5.29c.134-.247.472-.258.63-.047l.04.07 1.049 2.29.606-2.11c.078-.271.398-.348.593-.192l.055.053.045.068.274.524.382-1.62c.065-.28.39-.368.592-.214l.056.053zM6.63 13.442l-1.006 1.862h1.852l-.846-1.862zm5.072-3.063l-.361 1.536 1.539 3.389h1.485l-2.663-4.925zm-3.876.851l-.748 1.384 1.22 2.69h1.363l-1.59-3.503c-.016-.032-.025-.065-.03-.099l-.215-.472zm2.487.29l-.598 2.089.769 1.695h1.572l-1.56-3.435-.183-.349z" transform="translate(60 20)"/>
            </g>
            <g fill-rule="nonzero">
                <g>
                    <path fill="#73C7E8" d="M16.516 16.05L2.759 2.33l-.28.26-.072.085c-.214.303-.163.764.103 1.032l1.504 1.505h-1.26c-.41 0-.744.333-.744.744 0 .337.226.632.55.719l.096.019.049.004L5.5 6.7l2.41 2.411-3.367.904-2.32-1.34c-.355-.205-.81-.082-1.015.274l-.048.099c-.133.337-.003.73.32.916l1.032.596-1.962.527c-.396.106-.632.514-.526.91.07.258.27.458.527.527l.094.018c.096.013.193.007.288-.018l2.049-.55-.658 1.141c-.205.356-.083.81.273 1.016.056.032.116.057.179.074l.108.02c.29.034.579-.107.728-.367l1.4-2.429 3.288-.883-1.032 3.844-2.373 1.373c-.356.206-.477.66-.272 1.016.099.172.26.296.451.347l.116.021c.154.016.311-.016.449-.096l1.085-.628-.401 1.5c-.107.397.129.805.525.911l.1.02c.363.046.713-.182.81-.546l.403-1.504.627 1.087c.099.171.261.295.451.346.191.051.393.025.565-.074l.091-.062c.284-.226.367-.63.181-.954l-1.37-2.375 1.027-3.835 2.427 2.427-.002 2.787c0 .337.226.631.551.718.065.018.13.026.197.026l.1-.007c.36-.049.64-.36.64-.737v-1.3l1.478 1.479c.093.093.207.159.333.192.281.076.569.042.754-.143l.304-.328z" transform="translate(20) translate(.588)"/>
                    <path fill="#FEC600" d="M5.277 4.858c1.111-1.104 2.641-1.785 4.33-1.785 3.394 0 6.146 2.751 6.146 6.145 0 1.682-.676 3.207-1.771 4.316L5.277 4.858zM2.75 2.338c.184-.18.436-.29.713-.29.566 0 1.024.459 1.024 1.025 0 .276-.109.526-.286.71L2.749 2.337zm12.31 12.271c.183-.168.427-.27.694-.27.565 0 1.024.459 1.024 1.024 0 .266-.101.509-.268.69l-1.45-1.444zM9.608 2.049c-.565 0-1.024-.46-1.024-1.025S9.042 0 9.607 0c.566 0 1.025.459 1.025 1.024 0 .566-.459 1.024-1.025 1.024zm6.146 2.048c-.566 0-1.024-.459-1.024-1.024 0-.566.458-1.025 1.024-1.025.565 0 1.024.459 1.024 1.025 0 .565-.459 1.024-1.024 1.024zm2.048 6.145c-.565 0-1.024-.458-1.024-1.024 0-.566.459-1.024 1.024-1.024.566 0 1.024.458 1.024 1.024 0 .566-.458 1.024-1.024 1.024z" transform="translate(20) translate(.588)"/>
                </g>
            </g>
            <g stroke="#2E4DA7">
                <g>
                    <path fill="#2E4DA7" stroke-width=".5" d="M1.732 1.192c0-.105.087-.192.193-.192h5.85c.106 0 .192.087.192.192v3.62c0 .106-.086.193-.192.193h-5.85c-.106 0-.193-.087-.193-.193v-3.62zM8.93 5.728V.385C8.93.173 8.757 0 8.545 0h-7.39C.943 0 .77.173.77.385v10.972H.192c-.105 0-.192.087-.192.193v.577c0 .106.087.193.192.193h9.315c.106 0 .193-.087.193-.193v-.577c0-.106-.087-.193-.193-.193H8.93v-5.63z" transform="translate(0 20) translate(2.5 3.5)"/>
                    <path stroke-linecap="round" d="M8.945 5.957c1.237-.27 1.998.048 2.285.953.431 1.358-1.063 3.632 1.615 3.632 1.785 0 1.785-2.676 0-8.027M11 1c.656.25 2.14.881 3 2" transform="translate(0 20) translate(2.5 3.5)"/>
                </g>
            </g>
            <g fill="#2E4DA7">
                <g>
                    <path d="M10.17 9.35s.822.936.822 1.567c0 .63-.368.983-.821.983-.454 0-.821-.352-.821-.983 0-.63.82-1.567.82-1.567zM6.346 10.2s.82.936.82 1.567c0 .63-.367.983-.82.983-.454 0-.821-.352-.821-.983 0-.63.82-1.567.82-1.567zM2.52 9.35s.822.936.822 1.567c0 .63-.368.983-.821.983-.454 0-.821-.352-.821-.983 0-.63.82-1.567.82-1.567zM5.001 7.898c-.501.258-1.066.394-1.648.394C1.503 8.292 0 6.924 0 5.242c0-1.599 1.318-2.895 3.04-3.037C3.553.948 4.894.088 6.385.088c1.656 0 3.06 1.009 3.458 2.438 1.73-.072 3.17 1.193 3.17 2.757 0 1.522-1.36 2.76-3.03 2.76-.198 0-.394-.018-.587-.052-.571.51-1.343.8-2.147.8-.865 0-1.669-.323-2.248-.893z" transform="translate(20 20) translate(3 3.5)"/>
                </g>
            </g>
            <g fill="#FEC600" fill-rule="nonzero">
                <path d="M10 16.667c-3.682 0-6.667-2.985-6.667-6.667S6.318 3.333 10 3.333 16.667 6.318 16.667 10 13.682 16.667 10 16.667zM3.333 4.444c-.613 0-1.11-.497-1.11-1.11 0-.614.497-1.112 1.11-1.112.614 0 1.111.498 1.111 1.111 0 .614-.497 1.111-1.11 1.111zM10 2.222c-.614 0-1.111-.497-1.111-1.11C8.889.496 9.386 0 10 0s1.111.497 1.111 1.111S10.614 2.222 10 2.222zm6.667 2.222c-.614 0-1.111-.497-1.111-1.11 0-.614.497-1.112 1.11-1.112.614 0 1.112.498 1.112 1.111 0 .614-.498 1.111-1.111 1.111zm2.222 6.667c-.614 0-1.111-.497-1.111-1.111s.497-1.111 1.11-1.111C19.504 8.889 20 9.386 20 10s-.497 1.111-1.111 1.111zm-2.222 6.667c-.614 0-1.111-.498-1.111-1.111 0-.614.497-1.111 1.11-1.111.614 0 1.112.497 1.112 1.11 0 .614-.498 1.112-1.111 1.112zM10 20c-.614 0-1.111-.497-1.111-1.111s.497-1.111 1.111-1.111 1.111.497 1.111 1.11c0 .615-.497 1.112-1.111 1.112zm-6.667-2.222c-.613 0-1.11-.498-1.11-1.111 0-.614.497-1.111 1.11-1.111.614 0 1.111.497 1.111 1.11 0 .614-.497 1.112-1.11 1.112zM1.111 11.11C.497 11.111 0 10.614 0 10s.497-1.111 1.111-1.111S2.222 9.386 2.222 10s-.497 1.111-1.11 1.111z"/>
            </g>
            <g fill="#2E4DA7">
                <g>
                    <path d="M8.37 0L3.087 3.522 0 3.522 0 8.568 3.087 8.568 8.37 12.09 8.37 6.045zM11.358 5.759c.014.844-.281 1.649-.905 2.33-.226.248-.6.266-.845.044-.244-.22-.269-.594-.046-.84.29-.323.49-.688.56-1.117.118-.735-.08-1.375-.596-1.914-.096-.1-.188-.2-.225-.34-.066-.252.037-.52.257-.66.221-.14.512-.125.708.05.26.232.473.503.646.806.277.484.421 1.006.446 1.64" transform="translate(40 20) translate(1.5 3.5)"/>
                    <path d="M13.963 5.391c.054 1.607-.406 2.93-1.406 4.062-.16.18-.36.252-.595.197-.227-.054-.378-.2-.44-.426-.058-.213-.005-.403.14-.568.18-.201.341-.416.48-.647.325-.537.523-1.117.597-1.74.044-.377.04-.754-.016-1.128-.15-.99-.588-1.834-1.315-2.525-.101-.097-.192-.197-.232-.336-.071-.25.028-.523.248-.667.22-.144.512-.13.71.043.33.289.616.619.866.98.43.625.72 1.31.864 2.056.05.263.076.532.1.7" transform="translate(40 20) translate(1.5 3.5)"/>
                    <path d="M14.422 10.996c-.038-.008-.076-.016-.114-.026-.421-.113-.583-.62-.307-.96.169-.207.348-.407.503-.623.557-.774.906-1.635 1.061-2.575.086-.517.106-1.037.056-1.558-.132-1.367-.653-2.566-1.574-3.586-.13-.144-.275-.275-.41-.415-.281-.295-.193-.78.175-.954.053-.025.112-.04.168-.06l.134-.005c.012.004.024.009.037.01.123.02.232.069.324.154.646.596 1.171 1.283 1.57 2.067.41.806.666 1.659.76 2.56l.03.25.02.47c-.002.022-.007.044-.007.066.001.443-.036.883-.118 1.32-.257 1.386-.86 2.602-1.809 3.647-.093.103-.203.173-.34.201-.009.002-.016.008-.025.012l-.134.005" transform="translate(40 20) translate(1.5 3.5)"/>
                </g>
            </g>
            <g fill="#73C7E8" fill-rule="nonzero">
                <path d="M18.625 4.923c-.247-.31-.688-.401-1.04-.2l-1.36.782.306-1.149c.114-.431-.143-.875-.576-.99l-.13-.025c-.388-.039-.757.206-.86.594l-.723 2.709-3.427 1.968-.007-3.438L12.791 3.2c.316-.315.315-.827-.003-1.143l-.09-.079c-.317-.235-.768-.21-1.055.077l-.839.834L10.8.81C10.798.363 10.435 0 9.987 0l-.131.01c-.385.062-.678.394-.677.796l.004 2.09-.852-.847c-.316-.317-.83-.318-1.145-.002-.26.257-.31.658-.127.974l.059.088.034.041 2.036 2.032.007 3.421L6.15 6.848l-.718-2.65c-.116-.431-.562-.689-.994-.573l-.113.039c-.362.156-.563.557-.457.949l.295 1.088-1.732-.998c-.388-.224-.883-.093-1.106.293-.145.251-.143.559.002.809l.08.114c.06.072.133.133.215.18l1.814 1.045-1.217.324c-.432.115-.687.557-.57.988.018.068.046.134.081.195l.068.1c.199.249.53.362.845.278L5.42 8.29l2.972 1.713-3.477 1.998-2.722-.731c-.433-.116-.876.138-.99.569-.056.208-.026.428.081.613l.073.106c.107.131.253.227.42.272l1.155.31-1.3.746c-.387.222-.519.716-.294 1.103l.067.1c.247.309.688.4 1.04.198l1.302-.748-.306 1.149c-.055.208-.026.428.082.613.108.186.285.322.493.378l.13.024c.388.04.758-.206.861-.593l.724-2.71L9.2 11.408l.006 3.445-2.02 2.012c-.259.258-.31.659-.126.975.036.063.08.12.132.171l.09.078c.315.233.766.208 1.053-.079l.876-.874.004 2.054c0 .143.038.282.109.404.145.25.413.406.703.406l.132-.01c.384-.062.677-.394.676-.796l-.003-1.99.814.813c.316.317.83.318 1.145.003l.079-.09c.235-.316.208-.766-.08-1.053l-1.964-1.958-.006-3.515 2.985 1.722.743 2.742c.02.07.046.135.081.195.184.316.558.472.913.378l.113-.04c.362-.156.563-.557.457-.948l-.32-1.18 1.82 1.05c.388.223.882.092 1.105-.293l.057-.12c.137-.363-.006-.783-.355-.985l-1.783-1.03 1.125-.298c.432-.115.687-.557.571-.988l-.04-.113c-.157-.361-.56-.564-.953-.46l-2.69.713-3.016-1.739 3.423-1.966 2.719.733c.433.116.876-.14.99-.57l.024-.13c.038-.386-.21-.756-.599-.86l-1.152-.312 1.36-.78c.387-.222.519-.716.294-1.103l-.067-.1z" transform="translate(40)"/>
            </g>
        </g>
    </g>
</svg>
